<?xml version="1.0" encoding="UTF-8" standalone="no"?>
<!-- Created with Inkscape (http://www.inkscape.org/) -->

<svg
   xmlns:dc="http://purl.org/dc/elements/1.1/"
   xmlns:cc="http://creativecommons.org/ns#"
   xmlns:rdf="http://www.w3.org/1999/02/22-rdf-syntax-ns#"
   xmlns:svg="http://www.w3.org/2000/svg"
   xmlns="http://www.w3.org/2000/svg"
   version="1.1"
   width="528"
   height="528"
   id="svg2">
  <metadata
     id="metadata646">
    <rdf:RDF>
      <cc:Work
         rdf:about="">
        <dc:format>image/svg+xml</dc:format>
        <dc:type
           rdf:resource="http://purl.org/dc/dcmitype/StillImage" />
        <dc:title></dc:title>
      </cc:Work>
    </rdf:RDF>
  </metadata>
  <defs
     id="defs644" />
  <path
     d="m 64,64 0,16 0,16 0,16 0,16 0,16 0,16 0,16 16,0 16,0 16,0 16,0 16,0 16,0 16,0 0,-16 0,-16 0,-16 0,-16 0,-16 0,-16 0,-16 -16,0 -16,0 -16,0 -16,0 -16,0 -16,0 -16,0 z m 128,0 0,16 16,0 0,16 16,0 0,-16 16,0 0,16 0,16 16,0 0,16 0,16 16,0 0,-16 16,0 16,0 0,-16 -16,0 0,-16 -16,0 0,-16 16,0 0,16 16,0 0,16 16,0 0,-16 16,0 0,-16 -16,0 -16,0 0,-16 -16,0 -16,0 -16,0 -16,0 -16,0 -16,0 -16,0 z m 128,48 0,16 0,16 -16,0 -16,0 0,16 0,16 16,0 0,-16 16,0 0,16 16,0 0,-16 0,-16 0,-16 0,-16 -16,0 z m -32,64 -16,0 0,16 -16,0 0,16 0,16 0,16 16,0 0,-16 0,-16 16,0 0,-16 0,-16 z m 0,32 0,16 0,16 16,0 0,-16 16,0 0,-16 0,-16 -16,0 0,16 -16,0 z m 32,16 0,16 16,0 0,-16 -16,0 z m 16,16 0,16 -16,0 -16,0 -16,0 0,16 16,0 0,16 16,0 0,16 0,16 16,0 16,0 0,-16 -16,0 0,-16 0,-16 16,0 0,-16 16,0 16,0 0,-16 0,-16 0,-16 16,0 0,16 16,0 0,-16 0,-16 -16,0 -16,0 -16,0 -16,0 -16,0 0,16 16,0 0,16 16,0 0,16 -16,0 -16,0 z m 80,-16 0,16 0,16 0,16 -16,0 0,16 0,16 16,0 0,-16 16,0 0,-16 0,-16 16,0 0,16 0,16 0,16 0,16 0,16 0,16 -16,0 -16,0 -16,0 0,-16 -16,0 0,-16 0,-16 0,-16 0,-16 -16,0 -16,0 0,16 16,0 0,16 0,16 0,16 -16,0 -16,0 0,16 -16,0 -16,0 0,16 16,0 16,0 16,0 0,16 16,0 0,-16 0,-16 16,0 0,16 16,0 16,0 0,16 16,0 16,0 0,16 0,16 -16,0 0,16 16,0 16,0 0,-16 0,-16 0,-16 0,-16 0,-16 0,-16 0,-16 0,-16 0,-16 0,-16 0,-16 0,-16 0,-16 0,-16 0,-16 -16,0 0,16 -16,0 0,16 16,0 0,16 -16,0 0,-16 -16,0 z m 0,160 -16,0 0,16 16,0 0,-16 z m -16,16 -16,0 -16,0 -16,0 -16,0 -16,0 0,16 16,0 16,0 16,0 0,16 -16,0 0,16 16,0 16,0 0,-16 0,-16 16,0 0,-16 z m 0,16 0,16 0,16 16,0 0,-16 0,-16 -16,0 z m 16,32 0,16 16,0 0,-16 -16,0 z m -16,0 -16,0 0,16 16,0 0,-16 z m -48,0 -16,0 -16,0 -16,0 -16,0 -16,0 0,-16 -16,0 0,16 -16,0 -16,0 0,16 16,0 16,0 16,0 16,0 16,0 16,0 16,0 16,0 0,-16 z m -128,0 0,-16 16,0 16,0 0,-16 0,-16 -16,0 -16,0 0,16 -16,0 0,-16 0,-16 -16,0 0,16 0,16 0,16 0,16 16,0 16,0 z m -16,-64 16,0 0,-16 0,-16 -16,0 0,16 0,16 z m 0,-32 0,-16 16,0 0,-16 -16,0 -16,0 0,-16 0,-16 -16,0 -16,0 0,16 16,0 0,16 -16,0 0,16 16,0 16,0 0,16 16,0 z m -48,-64 0,-16 16,0 0,-16 -16,0 -16,0 0,16 -16,0 0,16 16,0 16,0 z m -32,0 -16,0 0,-16 -16,0 -16,0 0,16 0,16 16,0 16,0 16,0 0,-16 z m -48,16 -16,0 0,16 0,16 16,0 16,0 16,0 0,-16 -16,0 -16,0 0,-16 z m 0,-32 0,-16 -16,0 0,16 16,0 z m 0,-16 16,0 16,0 0,-16 -16,0 0,-16 -16,0 -16,0 0,16 16,0 0,16 z m 32,-16 16,0 0,16 16,0 0,-16 0,-16 -16,0 0,-16 16,0 0,-16 -16,0 -16,0 -16,0 -16,0 0,16 16,0 16,0 0,16 0,16 z m 32,-32 0,16 16,0 0,-16 -16,0 z m 16,0 16,0 0,-16 -16,0 0,16 z m 0,16 0,16 16,0 16,0 0,-16 -16,0 -16,0 z m 32,0 16,0 16,0 0,-16 -16,0 0,-16 0,-16 0,-16 0,-16 16,0 0,-16 16,0 0,-16 -16,0 -16,0 -16,0 0,16 0,16 0,16 0,16 0,16 0,16 0,16 z m 32,-16 16,0 0,-16 -16,0 0,16 z m 16,-16 16,0 0,-16 -16,0 0,16 z m 0,-16 0,-16 -16,0 0,16 16,0 z m 0,-16 16,0 0,-16 -16,0 0,16 z m 16,0 0,16 16,0 0,-16 -16,0 z m -64,80 0,16 16,0 16,0 0,16 0,16 16,0 0,-16 0,-16 0,-16 -16,0 -16,0 -16,0 z m 48,48 0,16 16,0 0,16 0,16 16,0 0,-16 0,-16 0,-16 0,-16 -16,0 0,16 -16,0 z m 16,48 -16,0 0,16 16,0 0,-16 z m -32,-48 -16,0 0,16 16,0 0,-16 z m 32,112 16,0 16,0 0,16 0,16 16,0 16,0 0,-16 -16,0 0,-16 16,0 0,-16 -16,0 -16,0 0,-16 0,-16 -16,0 0,16 -16,0 0,16 0,16 z m 128,-128 16,0 0,-16 -16,0 0,16 z m 32,32 0,16 16,0 0,-16 -16,0 z m -96,16 -16,0 0,16 16,0 0,-16 z m -16,0 0,-16 0,-16 -16,0 0,16 0,16 16,0 z m -16,-64 0,-16 -16,0 0,16 16,0 z m 64,-192 0,16 0,16 0,16 0,16 0,16 0,16 0,16 16,0 16,0 16,0 16,0 16,0 16,0 16,0 0,-16 0,-16 0,-16 0,-16 0,-16 0,-16 0,-16 -16,0 -16,0 -16,0 -16,0 -16,0 -16,0 -16,0 z m -272,16 16,0 16,0 16,0 16,0 16,0 0,16 0,16 0,16 0,16 0,16 -16,0 -16,0 -16,0 -16,0 -16,0 0,-16 0,-16 0,-16 0,-16 0,-16 z m 288,0 16,0 16,0 16,0 16,0 16,0 0,16 0,16 0,16 0,16 0,16 -16,0 -16,0 -16,0 -16,0 -16,0 0,-16 0,-16 0,-16 0,-16 0,-16 z m -272,16 0,16 0,16 0,16 16,0 16,0 16,0 0,-16 0,-16 0,-16 -16,0 -16,0 -16,0 z m 288,0 0,16 0,16 0,16 16,0 16,0 16,0 0,-16 0,-16 0,-16 -16,0 -16,0 -16,0 z m -320,256 0,16 0,16 0,16 0,16 0,16 0,16 0,16 16,0 16,0 16,0 16,0 16,0 16,0 16,0 0,-16 0,-16 0,-16 0,-16 0,-16 0,-16 0,-16 -16,0 -16,0 -16,0 -16,0 -16,0 -16,0 -16,0 z m 16,16 16,0 16,0 16,0 16,0 16,0 0,16 0,16 0,16 0,16 0,16 -16,0 -16,0 -16,0 -16,0 -16,0 0,-16 0,-16 0,-16 0,-16 0,-16 z m 16,16 0,16 0,16 0,16 16,0 16,0 16,0 0,-16 0,-16 0,-16 -16,0 -16,0 -16,0 z m 352,64 0,16 16,0 0,-16 -16,0 z"
     id="rect4"
     style="fill:#000000;stroke:none" />
</svg>
